<svg width="80" height="80" viewBox="0 0 80 80" fill="none" xmlns="http://www.w3.org/2000/svg">
<g clip-path="url(#clip0)">
<path d="M30.4739 75.1673C26.5957 75.1673 23.4414 72.0123 23.4414 68.1348C23.4414 64.2566 26.5957 61.1023 30.4739 61.1023C34.3515 61.1023 37.5058 64.2566 37.5058 68.1348C37.5058 72.0123 34.3515 75.1673 30.4739 75.1673Z" fill="#697C86"/>
<path d="M30.4733 70.4785C29.1799 70.4785 28.1289 69.4281 28.1289 68.1348C28.1289 66.8414 29.1799 65.7904 30.4733 65.7904C31.7666 65.7904 32.817 66.8414 32.817 68.1348C32.817 69.4281 31.7666 70.4785 30.4733 70.4785Z" fill="#465A61"/>
<path d="M63.6038 75.1673C59.7262 75.1673 56.5713 72.0123 56.5713 68.1348C56.5713 64.2566 59.7262 61.1023 63.6038 61.1023C67.4813 61.1023 70.6362 64.2566 70.6362 68.1348C70.6362 72.0123 67.4813 75.1673 63.6038 75.1673Z" fill="#596C76"/>
<path d="M63.6041 70.4785C62.3108 70.4785 61.2598 69.4281 61.2598 68.1348C61.2598 66.8414 62.3108 65.7904 63.6041 65.7904C64.8975 65.7904 65.9479 66.8414 65.9479 68.1348C65.9479 69.4281 64.8975 70.4785 63.6041 70.4785Z" fill="#3B4A51"/>
<path d="M71.0109 58.758C71.0109 60.0708 69.9794 61.1023 68.6672 61.1023H23.8167C19.9251 61.1023 16.7842 57.9608 16.7842 54.0698C16.7842 50.5072 19.4093 47.5531 22.8785 47.1313C23.1599 47.0374 23.4883 47.0374 23.8167 47.0374C24.3788 47.0374 24.9415 47.2723 25.3169 47.6471L23.91 51.7261C23.8637 51.7261 23.8637 51.7261 23.8167 51.7261C22.5038 51.7261 21.4723 52.757 21.4723 54.0698C21.4723 55.3827 22.5038 56.4142 23.8167 56.4142H68.6672C69.9794 56.4142 71.0109 57.4451 71.0109 58.758Z" fill="#465A61"/>
<path d="M15.5567 14.2255C15.7056 14.4129 18.23 15.553 20.7715 16.6693C20.7807 16.4673 20.8063 16.2671 20.7605 16.0608L18.6981 6.68396C18.4619 5.60791 17.5098 4.84375 16.4087 4.84375H2.34436C1.04859 4.84375 0 5.89234 0 7.18811C0 8.48328 1.04859 9.53186 2.34436 9.53186H14.5245L15.5567 14.2255Z" fill="#465A61"/>
<path d="M71.0108 58.7579C71.0108 60.0708 69.9793 61.1023 68.667 61.1023H46.6162V56.4142H68.667C69.9793 56.4142 71.0108 57.4451 71.0108 58.7579Z" fill="#3B4A51"/>
<path d="M79.5434 15.158C79.0746 14.5483 78.4179 14.2199 77.6678 14.2199H15.5645L22.8783 47.1313L23.9098 51.726H68.2915C69.323 51.726 70.2605 51.0223 70.5419 50.0378L79.9181 17.2204C80.1061 16.5173 79.9651 15.7202 79.5434 15.158Z" fill="#FDBF00"/>
<path d="M79.9182 17.2204L70.542 50.0378C70.2606 51.0223 69.3231 51.726 68.2916 51.726H46.6162V14.2199H77.6678C78.418 14.2199 79.0747 14.5483 79.5435 15.158C79.9652 15.7202 80.1062 16.5173 79.9182 17.2204Z" fill="#FF9F00"/>
</g>
<defs>
<clipPath id="clip0">
<rect width="80" height="80" fill="white"/>
</clipPath>
</defs>
</svg>
