<svg id="Layer_5" enable-background="new 0 0 64 64" height="512" viewBox="0 0 64 64" width="512" xmlns="http://www.w3.org/2000/svg"><g><path d="m42 31h16v-3h-2v-6h-1v-5h-2v5h-1v6h-10z"/><path d="m35 3h-2v4.98l2-.4z"/><path d="m39 1h-2v6.18l2-.4z"/><path d="m43 3h-2v3.38l2-.4z"/><path d="m36.75 54.44c.708-.289 1.47-.44 2.25-.44v-23h1v-5h7v-18.78l-18 3.6v41.433c.642-.164 1.312-.253 2-.253 2.195 0 4.262.902 5.75 2.44zm3.25-40.44h4v6h-4zm-8 0h4v6h-4zm0 10h4v6h-4zm0 10h4v6h-4zm0 10h4v6h-4z"/><path d="m47 52c.688 0 1.357.093 2 .259v-15.259h-4v15.265c.646-.168 1.315-.265 2-.265z"/><path d="m53.929 56h.071c.339 0 .67.037 1 .079v-19.079h-4v16.069c1.205.696 2.221 1.7 2.929 2.931z"/><path d="m59 57.786v-24.786h-18v21.366c.082.029.169.042.25.075.518-.536 1.11-.989 1.75-1.359v-18.082h14v21.61c.723.295 1.394.689 2 1.176z"/><path d="m59.184 61c-1.038-1.79-2.966-3-5.184-3-.445 0-.878.052-1.296.144-.782-2.404-3.038-4.144-5.704-4.144-2.263 0-4.232 1.254-5.254 3.104-.717-.68-1.68-1.104-2.746-1.104s-2.029.424-2.746 1.104c-1.022-1.85-2.991-3.104-5.254-3.104-2.696 0-4.975 1.778-5.732 4.224-.401-.134-.822-.224-1.268-.224l-.515.036c-.686-1.216-1.99-2.036-3.485-2.036-2.209 0-4 1.791-4 4 0 .346.047.68.129 1h-2.035c-.056-.33-.094-.663-.094-1 0-3.309 2.691-6 6-6 1.6 0 3.113.642 4.223 1.738.697-1.116 1.656-2.026 2.777-2.671v-36.067h-14v10.58c.705.277 1.378.644 2 1.108v-1.688h2v2h-1.618c.369.308.724.639 1.05 1.012 1.242.065 2.415.417 3.476.988h1.092v.701c2.407 1.796 4 4.842 4 8.299 0 4.344-2.51 8.039-6 9.417v1.694l-6 6.999v2.89h-2v-3.631l6-6.999v-2.461c3.386-.558 6-3.887 6-7.909 0-4.411-3.141-8-7-8-.172 0-.348.011-.526.028-1.284-1.842-3.259-3.028-5.474-3.028-3.859 0-7 3.589-7 8 0 4.022 2.614 7.351 6 7.909v-8.909h2v9.578c1.072 1.26 2.474 2.076 4 2.33v1.722l-4 4.667v-8.719c-.165-.194-.325-.395-.474-.609-.174.015-.348.031-.526.031-.34 0-.672-.037-1-.091v1.303c-.837-.757-1.874-1.212-3-1.212-2.757 0-5 2.691-5 6 0 2.898 1.721 5.321 4 5.879v4.121h-4v2h62v-2zm-42.184-36h-2v-2h2zm0-4h-2v-2h2zm4 8h-2v-2h2zm0-4h-2v-2h2zm0-4h-2v-2h2zm2-2h2v2h-2zm0 4h2v2h-2zm0 4h2v2h-2zm0 6v-2h2v2zm-16 23.879c.74-.181 1.418-.564 2-1.09v5.211h-2z"/></g></svg>