<svg width="30" height="27" viewBox="0 0 30 27" fill="none" xmlns="http://www.w3.org/2000/svg">
<path d="M27.6201 2.612C26.0671 0.927658 23.9362 0 21.6195 0C19.8878 0 18.3018 0.547485 16.9057 1.62712C16.2012 2.17209 15.5628 2.83882 15 3.61702C14.4374 2.83905 13.7988 2.17209 13.0941 1.62712C11.6982 0.547485 10.1122 0 8.38051 0C6.06377 0 3.93265 0.927658 2.37968 2.612C0.845261 4.27666 0 6.55083 0 9.01588C0 11.553 0.945511 13.8755 2.97546 16.325C4.79141 18.5161 7.40135 20.7404 10.4237 23.316C11.4558 24.1956 12.6256 25.1926 13.8403 26.2546C14.1611 26.5356 14.5729 26.6904 15 26.6904C15.4269 26.6904 15.8389 26.5356 16.1593 26.255C17.374 25.1928 18.5445 24.1953 19.577 23.3153C22.5989 20.7401 25.2088 18.5161 27.0248 16.3248C29.0547 13.8755 30 11.553 30 9.01566C30 6.55083 29.1547 4.27666 27.6201 2.612Z" fill="#E9310C"/>
</svg>
