<svg width="30" height="27" viewBox="0 0 30 27" fill="none" xmlns="http://www.w3.org/2000/svg">
<path d="M15 26.7241C14.5729 26.7241 14.1611 26.5692 13.8403 26.2878C12.6283 25.2267 11.4599 24.2296 10.429 23.35L10.4237 23.3455C7.40135 20.7666 4.79141 18.5395 2.97546 16.3457C0.945511 13.8931 0 11.5677 0 9.02729C0 6.55912 0.845261 4.28207 2.37991 2.6153C3.93288 0.928832 6.06377 0 8.38074 0C10.1125 0 11.6984 0.548178 13.0943 1.62918C13.7988 2.17484 14.4374 2.84264 15 3.6216C15.5628 2.84264 16.2012 2.17484 16.9059 1.62918C18.3018 0.548178 19.8878 0 21.6195 0C23.9362 0 26.0674 0.928832 27.6203 2.6153C29.155 4.28207 30 6.55912 30 9.02729C30 11.5677 29.0547 13.8931 27.0248 16.3454C25.2088 18.5395 22.5991 20.7664 19.5772 23.345C18.5445 24.2259 17.3742 25.2247 16.1595 26.2883C15.8389 26.5692 15.4269 26.7241 15 26.7241ZM8.38074 1.75958C6.56044 1.75958 4.88823 2.48697 3.67172 3.80791C2.43713 5.14879 1.75713 7.00233 1.75713 9.02729C1.75713 11.1639 2.5502 13.0747 4.32838 15.2229C6.04706 17.2995 8.60344 19.4807 11.5633 22.0064L11.5688 22.011C12.6036 22.894 13.7766 23.895 14.9975 24.9639C16.2257 23.893 17.4005 22.8903 18.4373 22.006C21.397 19.4803 23.9532 17.2995 25.6718 15.2229C27.4498 13.0747 28.2429 11.1639 28.2429 9.02729C28.2429 7.00233 27.5629 5.14879 26.3283 3.80791C25.112 2.48697 23.4396 1.75958 21.6195 1.75958C20.286 1.75958 19.0617 2.184 17.9807 3.02094C17.0174 3.76712 16.3463 4.71039 15.9528 5.3704C15.7505 5.70981 15.3944 5.91239 15 5.91239C14.6056 5.91239 14.2495 5.70981 14.0472 5.3704C13.6539 4.71039 12.9829 3.76712 12.0193 3.02094C10.9383 2.184 9.71397 1.75958 8.38074 1.75958Z" fill="black"/>
</svg>
