<svg width="40" height="39" viewBox="0 0 40 39" fill="none" xmlns="http://www.w3.org/2000/svg">
<path d="M20 0C8.95427 0 0 8.65641 0 19.3347C0 30.013 8.95427 38.6694 20 38.6694C31.0457 38.6694 40 30.013 40 19.3347C40 8.65641 31.0457 0 20 0ZM27.6301 9.84636L24.8638 9.84755C22.6946 9.84755 22.2752 10.8441 22.2752 12.3062V15.5303H27.448L27.4455 20.58H22.2756V33.539H16.8802V20.58H12.3699V15.5303H16.8802V11.8061C16.8802 7.48427 19.6117 5.13047 23.5994 5.13047L27.6305 5.13641V9.84636H27.6301Z" fill="white"/>
</svg>
