<svg width="593" height="218" viewBox="0 0 593 218" fill="none" xmlns="http://www.w3.org/2000/svg">
<g clip-path="url(#clip0)">
<path d="M570.811 96.1986L296.341 197.109L21.8711 96.1986C16.7506 94.3802 8.58959 94.4326 3.64317 96.315C-1.18119 98.1516 -1.18119 101.063 3.64317 102.899L287.24 207.156C292.273 209.006 300.433 209.006 305.468 207.156L589.065 102.899C594.011 101.017 593.868 98.0166 588.748 96.1982C583.752 94.4242 575.833 94.4242 570.837 96.1982L570.811 96.1986Z" fill="white"/>
<path d="M570.811 10.8977L296.341 111.808L21.8711 10.8977C16.7506 9.07931 8.58959 9.13174 3.64317 11.0141C-1.18119 12.8508 -1.18119 15.7621 3.64317 17.5987L287.24 121.855C292.273 123.705 300.433 123.705 305.468 121.855L589.065 17.5987C594.185 15.7803 594.326 12.7806 589.381 10.8977C584.435 9.01534 576.275 8.96336 571.153 10.7813C571.046 10.8195 570.941 10.8582 570.837 10.8977H570.811Z" fill="white"/>
<path d="M296.342 208.549C292.92 208.551 289.637 208.054 287.215 207.165L3.61824 102.909C-1.32818 101.026 -1.18558 98.0262 3.93487 96.2078C8.93083 94.4343 16.8502 94.4343 21.8449 96.2078L296.341 197.109L570.811 96.1985C575.931 94.3801 584.092 94.4325 589.039 96.3149C593.864 98.1515 593.864 101.063 589.039 102.899L305.443 207.156C303.031 208.045 299.758 208.546 296.342 208.549Z" fill="white"/>
<path d="M296.342 123.248C292.92 123.251 289.637 122.753 287.215 121.865L3.61824 17.608C-1.32818 15.7257 -1.18558 12.7255 3.93486 10.9071C8.93083 9.13351 16.8502 9.13351 21.8462 10.9071L296.342 111.808L570.812 10.8977C575.758 9.01534 583.918 8.96336 589.04 10.7813C594.161 12.5993 594.302 15.5995 589.356 17.4823C589.252 17.5219 589.147 17.5605 589.04 17.5987L305.443 121.855C303.031 122.744 299.758 123.245 296.342 123.248Z" fill="white"/>
</g>
<defs>
<clipPath id="clip0">
<rect width="593" height="218" fill="white"/>
</clipPath>
</defs>
</svg>
