<svg width="30" height="31" viewBox="0 0 30 31" fill="none" xmlns="http://www.w3.org/2000/svg">
<path fill-rule="evenodd" clip-rule="evenodd" d="M15 0.763672C18.9782 0.763672 22.7936 2.34402 25.6066 5.15707C28.4196 7.97012 30 11.7854 30 15.7637C30 19.7419 28.4196 23.5572 25.6066 26.3703C22.7936 29.1833 18.9782 30.7637 15 30.7637C11.0218 30.7637 7.20644 29.1833 4.3934 26.3703C1.58035 23.5572 0 19.7419 0 15.7637C0 11.7854 1.58035 7.97012 4.3934 5.15707C7.20644 2.34402 11.0218 0.763672 15 0.763672V0.763672ZM9.375 14.8262C9.12636 14.8262 8.8879 14.9249 8.71209 15.1008C8.53627 15.2766 8.4375 15.515 8.4375 15.7637C8.4375 16.0123 8.53627 16.2508 8.71209 16.4266C8.8879 16.6024 9.12636 16.7012 9.375 16.7012H18.3619L14.3362 20.7249C14.2491 20.8121 14.1799 20.9156 14.1328 21.0295C14.0856 21.1433 14.0613 21.2654 14.0613 21.3887C14.0613 21.5119 14.0856 21.634 14.1328 21.7479C14.1799 21.8618 14.2491 21.9653 14.3362 22.0524C14.4234 22.1396 14.5269 22.2087 14.6408 22.2559C14.7547 22.3031 14.8767 22.3274 15 22.3274C15.1233 22.3274 15.2453 22.3031 15.3592 22.2559C15.4731 22.2087 15.5766 22.1396 15.6638 22.0524L21.2888 16.4274C21.3761 16.3403 21.4453 16.2369 21.4926 16.123C21.5398 16.0091 21.5642 15.887 21.5642 15.7637C21.5642 15.6404 21.5398 15.5183 21.4926 15.4044C21.4453 15.2905 21.3761 15.187 21.2888 15.0999L15.6638 9.47492C15.4877 9.29888 15.249 9.19999 15 9.19999C14.751 9.19999 14.5123 9.29888 14.3362 9.47492C14.1602 9.65096 14.0613 9.88972 14.0613 10.1387C14.0613 10.3876 14.1602 10.6264 14.3362 10.8024L18.3619 14.8262L9.375 14.8262Z" fill="#404040"/>
</svg>
