<svg width="30" height="31" viewBox="0 0 30 31" fill="none" xmlns="http://www.w3.org/2000/svg">
<path fill-rule="evenodd" clip-rule="evenodd" d="M15 0.763672C11.0218 0.763672 7.20644 2.34402 4.3934 5.15707C1.58035 7.97012 0 11.7854 0 15.7637C0 19.7419 1.58035 23.5572 4.3934 26.3703C7.20644 29.1833 11.0218 30.7637 15 30.7637C18.9782 30.7637 22.7936 29.1833 25.6066 26.3703C28.4196 23.5572 30 19.7419 30 15.7637C30 11.7854 28.4196 7.97012 25.6066 5.15707C22.7936 2.34402 18.9782 0.763672 15 0.763672V0.763672ZM20.625 14.8262C20.8736 14.8262 21.1121 14.9249 21.2879 15.1008C21.4637 15.2766 21.5625 15.515 21.5625 15.7637C21.5625 16.0123 21.4637 16.2508 21.2879 16.4266C21.1121 16.6024 20.8736 16.7012 20.625 16.7012H11.6381L15.6638 20.7249C15.7509 20.8121 15.8201 20.9156 15.8672 21.0295C15.9144 21.1433 15.9387 21.2654 15.9387 21.3887C15.9387 21.5119 15.9144 21.634 15.8672 21.7479C15.8201 21.8618 15.7509 21.9653 15.6638 22.0524C15.5766 22.1396 15.4731 22.2087 15.3592 22.2559C15.2453 22.3031 15.1233 22.3274 15 22.3274C14.8767 22.3274 14.7547 22.3031 14.6408 22.2559C14.5269 22.2087 14.4234 22.1396 14.3362 22.0524L8.71125 16.4274C8.62394 16.3403 8.55468 16.2369 8.50741 16.123C8.46015 16.0091 8.43582 15.887 8.43582 15.7637C8.43582 15.6404 8.46015 15.5183 8.50741 15.4044C8.55468 15.2905 8.62394 15.187 8.71125 15.0999L14.3362 9.47492C14.5123 9.29888 14.751 9.19999 15 9.19999C15.249 9.19999 15.4877 9.29888 15.6638 9.47492C15.8398 9.65096 15.9387 9.88972 15.9387 10.1387C15.9387 10.3876 15.8398 10.6264 15.6638 10.8024L11.6381 14.8262L20.625 14.8262Z" fill="#808080"/>
</svg>
