<?xml version="1.0"?>
<svg xmlns="http://www.w3.org/2000/svg" xmlns:xlink="http://www.w3.org/1999/xlink" xmlns:svgjs="http://svgjs.com/svgjs" version="1.1" width="512" height="512" x="0" y="0" viewBox="0 0 24 24" style="enable-background:new 0 0 512 512" xml:space="preserve" class=""><g><path xmlns="http://www.w3.org/2000/svg" d="m13.75 7h-.75v-2c0-2.757-2.243-5-5-5s-5 2.243-5 5v2h-.75c-1.24 0-2.25 1.009-2.25 2.25v8.5c0 1.241 1.01 2.25 2.25 2.25h11.5c1.24 0 2.25-1.009 2.25-2.25v-8.5c0-1.241-1.01-2.25-2.25-2.25zm-8.75-2c0-1.654 1.346-3 3-3s3 1.346 3 3v2h-6z" fill="#ffffff" data-original="#000000" style="" class=""/><path xmlns="http://www.w3.org/2000/svg" d="m20 19c-1.103 0-2-.897-2-2s.897-2 2-2 2 .897 2 2-.897 2-2 2z" fill="#ffffff" data-original="#000000" style="" class=""/><path xmlns="http://www.w3.org/2000/svg" d="m23.25 24h-6.5c-.414 0-.75-.336-.75-.75v-.5c0-1.517 1.233-2.75 2.75-2.75h2.5c1.517 0 2.75 1.233 2.75 2.75v.5c0 .414-.336.75-.75.75z" fill="#ffffff" data-original="#000000" style="" class=""/></g></svg>
