<svg width="40" height="40" viewBox="0 0 40 40" fill="none" xmlns="http://www.w3.org/2000/svg">
<path d="M35.1334 11.6667C34.8454 11.1677 34.433 10.7519 33.9364 10.4598C33.4399 10.1677 32.8761 10.0093 32.3 10H10.9667L10 6.23333C9.90237 5.86973 9.68448 5.54991 9.38184 5.32595C9.0792 5.102 8.70965 4.98711 8.33337 5H5.00004C4.55801 5 4.13409 5.1756 3.82153 5.48816C3.50897 5.80072 3.33337 6.22464 3.33337 6.66667C3.33337 7.1087 3.50897 7.53262 3.82153 7.84518C4.13409 8.15774 4.55801 8.33333 5.00004 8.33333H7.06671L11.6667 25.4333C11.7644 25.7969 11.9823 26.1168 12.2849 26.3407C12.5876 26.5647 12.9571 26.6796 13.3334 26.6667H28.3334C28.6412 26.6657 28.9427 26.5796 29.2045 26.4178C29.4663 26.256 29.6782 26.0249 29.8167 25.75L35.2834 14.8167C35.5203 14.32 35.6306 13.7725 35.6045 13.2228C35.5783 12.6732 35.4164 12.1385 35.1334 11.6667Z" fill="white"/>
<path d="M12.5 35C13.8807 35 15 33.8807 15 32.5C15 31.1193 13.8807 30 12.5 30C11.1193 30 10 31.1193 10 32.5C10 33.8807 11.1193 35 12.5 35Z" fill="white"/>
<path d="M29.1667 35C30.5475 35 31.6667 33.8807 31.6667 32.5C31.6667 31.1193 30.5475 30 29.1667 30C27.786 30 26.6667 31.1193 26.6667 32.5C26.6667 33.8807 27.786 35 29.1667 35Z" fill="white"/>
</svg>
