<svg width="40" height="40" viewBox="0 0 40 40" fill="none" xmlns="http://www.w3.org/2000/svg">
<path d="M20 2.5C16.5388 2.5 13.1554 3.52636 10.2775 5.44928C7.39967 7.37221 5.15665 10.1053 3.83212 13.303C2.50758 16.5007 2.16102 20.0194 2.83627 23.4141C3.51151 26.8087 5.17822 29.9269 7.62564 32.3744C10.0731 34.8218 13.1913 36.4885 16.5859 37.1637C19.9806 37.839 23.4993 37.4924 26.697 36.1679C29.8947 34.8434 32.6278 32.6003 34.5507 29.7225C36.4737 26.8446 37.5 23.4612 37.5 20C37.5 15.3587 35.6563 10.9075 32.3744 7.62563C29.0925 4.34374 24.6413 2.5 20 2.5ZM20 8.75C21.1125 8.75 22.2001 9.0799 23.1251 9.69798C24.0501 10.3161 24.7711 11.1946 25.1968 12.2224C25.6226 13.2502 25.734 14.3812 25.5169 15.4724C25.2999 16.5635 24.7642 17.5658 23.9775 18.3525C23.1908 19.1391 22.1885 19.6749 21.0974 19.8919C20.0062 20.109 18.8752 19.9976 17.8474 19.5718C16.8196 19.1461 15.9411 18.4251 15.323 17.5001C14.7049 16.5751 14.375 15.4875 14.375 14.375C14.3734 13.6359 14.5177 12.9037 14.7998 12.2205C15.0819 11.5373 15.4962 10.9165 16.0189 10.3938C16.5415 9.87119 17.1623 9.45692 17.8455 9.17482C18.5287 8.89272 19.2609 8.74835 20 8.75ZM30 31.15C27.2588 33.6279 23.6952 34.9998 20 34.9998C16.3048 34.9998 12.7412 33.6279 10 31.15V30.425C9.95267 28.7135 10.5825 27.0524 11.7528 25.8026C12.923 24.5528 14.5391 23.8152 16.25 23.75H23.75C25.4532 23.8184 27.0616 24.5517 28.2302 25.7927C29.3987 27.0337 30.0341 28.6833 30 30.3875V31.15Z" fill="#F4C025"/>
</svg>
